<?xml version="1.0" standalone="no"?>
<!DOCTYPE svg PUBLIC "-//W3C//DTD SVG 20010904//EN"
 "http://www.w3.org/TR/2001/REC-SVG-20010904/DTD/svg10.dtd">
<svg version="1.0" xmlns="http://www.w3.org/2000/svg"
 width="512.000000pt" height="512.000000pt" viewBox="0 0 512.000000 512.000000"
 preserveAspectRatio="xMidYMid meet">

<g transform="translate(0.000000,512.000000) scale(0.100000,-0.100000)"
fill="#000000" stroke="none">
<path d="M2401 4889 c-128 -25 -287 -95 -431 -190 -143 -94 -352 -307 -459
-468 -319 -479 -371 -956 -146 -1343 25 -43 45 -83 45 -91 0 -7 -29 -27 -64
-44 -83 -41 -187 -139 -237 -224 l-41 -68 -56 -7 c-86 -10 -155 -40 -212 -91
-62 -56 -94 -109 -115 -190 -15 -58 -15 -74 5 -251 l22 -189 -50 -134 c-101
-268 -182 -572 -182 -679 0 -193 107 -356 290 -442 83 -40 91 -46 102 -81 16
-54 83 -126 143 -153 l50 -24 1495 0 1495 0 51 24 c59 27 120 93 143 155 15
40 21 45 79 67 201 75 323 262 309 473 -8 128 -92 434 -189 691 l-39 105 21
186 c21 176 21 190 6 250 -41 160 -160 263 -327 283 -53 7 -57 9 -79 49 -74
134 -171 230 -277 272 -24 10 -43 21 -43 26 0 5 17 40 39 78 47 84 85 177 113
279 18 65 22 105 22 252 1 159 -2 184 -27 278 -156 590 -658 1114 -1151 1201
-70 13 -242 13 -305 0z m324 -161 c75 -12 169 -49 260 -101 327 -188 614 -555
719 -920 27 -92 54 -262 44 -273 -4 -3 -64 13 -134 36 -685 223 -1422 218
-2141 -15 l-103 -33 0 38 c0 65 29 204 61 296 130 372 405 708 722 883 177 98
356 126 572 89z m245 -1262 c58 -8 135 -20 173 -26 67 -12 67 -12 67 -45 0
-96 -54 -288 -112 -397 -50 -96 -165 -207 -261 -253 -302 -144 -653 -23 -801
276 -45 92 -100 276 -108 364 l-3 40 137 22 c75 12 185 26 245 32 142 13 530
5 663 -13z m-1175 -163 c23 -120 58 -235 94 -315 200 -445 751 -587 1139 -293
161 121 277 344 316 605 l13 85 31 -3 c18 -1 103 -26 190 -55 l157 -52 -3 -30
c-8 -62 -63 -213 -107 -289 -25 -44 -50 -97 -56 -118 -21 -81 25 -152 131
-200 30 -14 70 -38 89 -54 35 -29 91 -100 91 -116 0 -4 -594 -8 -1320 -8 -850
0 -1320 3 -1320 10 0 25 119 129 181 158 140 67 174 164 99 282 -69 109 -155
341 -133 361 14 12 341 113 384 118 4 1 14 -38 24 -86z m2381 -1017 c76 -35
124 -110 124 -194 0 -19 -34 -332 -75 -694 -41 -362 -75 -663 -75 -668 0 -7
-578 -10 -1590 -10 -1157 0 -1590 3 -1590 11 0 6 -34 307 -75 670 -41 362 -75
675 -75 696 0 40 30 115 58 147 9 10 40 29 67 42 l50 24 1565 0 1565 0 51 -24z
m-3386 -1247 c22 -195 43 -374 46 -398 l7 -44 -43 24 c-57 32 -117 99 -148
167 -45 100 -33 205 60 510 17 56 33 101 34 99 2 -2 22 -163 44 -358z m3667
81 c46 -174 49 -260 11 -341 -30 -66 -89 -129 -148 -159 l-41 -21 6 43 c3 24
23 202 45 395 22 194 40 356 41 360 2 15 50 -142 86 -277z m-332 -607 c-9 -73
-31 -113 -75 -135 -33 -17 -125 -18 -1490 -18 -1365 0 -1457 1 -1490 18 -44
22 -66 62 -75 135 l-6 57 1571 0 1571 0 -6 -57z"/>
<path d="M2455 1877 c-74 -25 -122 -56 -173 -111 -69 -76 -95 -146 -96 -256
-1 -75 3 -93 30 -150 38 -80 105 -149 182 -187 51 -25 67 -28 162 -28 95 0
111 3 162 28 77 38 144 107 182 187 27 57 31 75 30 150 -1 112 -27 181 -100
259 -72 79 -149 113 -259 118 -48 2 -96 -2 -120 -10z m225 -165 c68 -42 103
-99 108 -176 2 -35 -1 -81 -8 -101 -27 -83 -129 -155 -220 -155 -88 0 -182 64
-218 150 -23 55 -13 158 21 209 30 46 90 89 139 102 53 13 129 1 178 -29z"/>
</g>
</svg>
